<svg width="212" height="48" viewBox="0 0 212 48" fill="none" xmlns="http://www.w3.org/2000/svg">
<g clip-path="url(#clip0_1_144)">
<path d="M0 0.564697H60.4824V38.7584L53.7055 43.7868L47.5599 48.4941H0V0.564697Z" fill="#8DD076"/>
<path d="M47.1803 38.3373C51.0937 40.253 55.9235 40.4725 60.0248 38.9212L60.4635 38.7552L47.5085 48.4849L47.1803 38.3373Z" fill="#292929"/>
<path d="M25.2077 25V9.97971H29.1573V11.2194C30.2913 10.2007 31.6944 9.69142 33.3665 9.69142C34.5389 9.69142 35.5671 9.95088 36.4513 10.4698C37.3546 10.9695 38.0561 11.6711 38.5558 12.5744C39.0555 13.4585 39.3054 14.4964 39.3054 15.688V25H35.3557V16.2646C35.3557 15.2844 35.077 14.5156 34.5197 13.9582C33.9623 13.3816 33.2031 13.0933 32.2421 13.0933C31.5694 13.0933 30.9736 13.2279 30.4547 13.4969C29.9357 13.7468 29.5033 14.112 29.1573 14.5925V25H25.2077ZM50.7611 25.2883C49.2619 25.2883 47.9069 24.9423 46.6961 24.2504C45.4852 23.5585 44.5243 22.6264 43.8131 21.4539C43.102 20.2815 42.7464 18.965 42.7464 17.5043C42.7464 16.0436 43.0924 14.727 43.7843 13.5546C44.4954 12.363 45.4564 11.4212 46.6673 10.7293C47.8973 10.0374 49.2619 9.69142 50.7611 9.69142C52.2602 9.69142 53.6152 10.0374 54.8261 10.7293C56.0561 11.4212 57.0171 12.363 57.709 13.5546C58.4202 14.727 58.7757 16.0436 58.7757 17.5043C58.7757 18.965 58.4202 20.2815 57.709 21.4539C57.0171 22.6264 56.0658 23.5585 54.8549 24.2504C53.6441 24.9423 52.2795 25.2883 50.7611 25.2883ZM50.7611 21.8576C51.5491 21.8576 52.2506 21.6654 52.8657 21.281C53.4999 20.8966 53.9996 20.3776 54.3648 19.7242C54.7492 19.0515 54.9414 18.3115 54.9414 17.5043C54.9414 16.6778 54.7492 15.9379 54.3648 15.2844C53.9996 14.6309 53.4999 14.112 52.8657 13.7276C52.2506 13.324 51.5491 13.1222 50.7611 13.1222C49.9923 13.1222 49.2908 13.324 48.6565 13.7276C48.0223 14.112 47.5225 14.6309 47.1574 15.2844C46.7922 15.9379 46.6096 16.6778 46.6096 17.5043C46.6096 18.3115 46.7922 19.0515 47.1574 19.7242C47.5225 20.3776 48.0223 20.8966 48.6565 21.281C49.2908 21.6654 49.9923 21.8576 50.7611 21.8576ZM68.8744 25.2306C67.2023 25.2306 65.9338 24.8559 65.0689 24.1063C64.2232 23.3375 63.8004 22.2227 63.8004 20.762V13.2663H60.7156V9.97971H63.8004V6.14536L67.7501 5.25164V9.97971H72.0457V13.2663H67.7501V19.9548C67.7501 20.6467 67.9038 21.1464 68.2113 21.4539C68.5188 21.7422 69.057 21.8864 69.8258 21.8864C70.2102 21.8864 70.5561 21.8672 70.8637 21.8287C71.1904 21.7711 71.546 21.675 71.9304 21.5404V24.7982C71.5267 24.9327 71.0174 25.0384 70.4024 25.1153C69.8066 25.1922 69.2972 25.2306 68.8744 25.2306ZM82.4651 25.2883C80.9659 25.2883 79.6013 24.9423 78.3713 24.2504C77.1604 23.5585 76.1994 22.6264 75.4883 21.4539C74.7771 20.2815 74.4216 18.965 74.4216 17.5043C74.4216 16.0436 74.7579 14.727 75.4306 13.5546C76.1225 12.3822 77.0547 11.45 78.2271 10.7581C79.3995 10.0662 80.7065 9.72025 82.1479 9.72025C83.5894 9.72025 84.8675 10.0758 85.9823 10.7869C87.097 11.4981 87.9715 12.4591 88.6058 13.6699C89.2593 14.8808 89.586 16.255 89.586 17.7926V18.8304H78.4577C78.6307 19.4263 78.9094 19.9644 79.2938 20.4449C79.6974 20.9254 80.1875 21.3002 80.7641 21.5693C81.3599 21.8383 81.9942 21.9729 82.6669 21.9729C83.3396 21.9729 83.9546 21.8672 84.512 21.6558C85.0886 21.4443 85.5787 21.1464 85.9823 20.762L88.577 23.1261C87.6544 23.8756 86.703 24.4234 85.7228 24.7694C84.7618 25.1153 83.6759 25.2883 82.4651 25.2883ZM78.4001 16.0051H85.694C85.5595 15.4093 85.3096 14.8904 84.9444 14.4483C84.5985 13.987 84.1756 13.6315 83.6759 13.3816C83.1954 13.1125 82.6573 12.978 82.0615 12.978C81.4464 12.978 80.889 13.1029 80.3893 13.3528C79.8896 13.6026 79.4668 13.9582 79.1208 14.4195C78.7941 14.8615 78.5538 15.3901 78.4001 16.0051ZM100.208 25.2018C98.7854 25.2018 97.4977 24.8559 96.3445 24.1639C95.1913 23.472 94.2687 22.5495 93.5768 21.3963C92.9041 20.2239 92.5678 18.9169 92.5678 17.4754C92.5678 16.034 92.9041 14.7366 93.5768 13.5834C94.2687 12.411 95.2009 11.4885 96.3733 10.8158C97.5457 10.1239 98.8623 9.77791 100.323 9.77791C101.073 9.77791 101.793 9.88361 102.485 10.095C103.177 10.2872 103.821 10.5755 104.417 10.9599V4.81919L108.366 4.15611V25H104.474V23.7603C103.244 24.7213 101.822 25.2018 100.208 25.2018ZM100.842 21.8287C101.572 21.8287 102.235 21.7134 102.831 21.4828C103.446 21.2329 103.975 20.8677 104.417 20.3872V14.5348C103.975 14.0928 103.446 13.7468 102.831 13.4969C102.216 13.2471 101.553 13.1222 100.842 13.1222C100.015 13.1222 99.2659 13.3144 98.5932 13.6987C97.9397 14.0639 97.4208 14.5829 97.0364 15.2556C96.652 15.909 96.4598 16.649 96.4598 17.4754C96.4598 18.3019 96.652 19.0419 97.0364 19.6953C97.4208 20.3488 97.9397 20.8677 98.5932 21.2521C99.2659 21.6365 100.015 21.8287 100.842 21.8287Z" fill="white"/>
<path d="M75.733 37V31.4H78.165C78.533 31.4 78.8503 31.4667 79.117 31.6C79.389 31.7333 79.5996 31.9227 79.749 32.168C79.8983 32.408 79.973 32.6907 79.973 33.016C79.973 33.3413 79.8983 33.6267 79.749 33.872C79.5996 34.112 79.389 34.3013 79.117 34.44C78.845 34.5733 78.5276 34.64 78.165 34.64H76.349V37H75.733ZM76.349 34.104H78.117C78.4956 34.104 78.797 34.008 79.021 33.816C79.245 33.6187 79.357 33.3547 79.357 33.024C79.357 32.6933 79.245 32.432 79.021 32.24C78.797 32.048 78.4956 31.952 78.117 31.952H76.349V34.104ZM82.9636 37.072C82.6703 37.072 82.4116 37.0213 82.1876 36.92C81.969 36.8187 81.7956 36.6773 81.6676 36.496C81.545 36.3147 81.4836 36.104 81.4836 35.864C81.4836 35.4853 81.6276 35.1867 81.9156 34.968C82.2036 34.7493 82.593 34.64 83.0836 34.64C83.5156 34.64 83.9076 34.7307 84.2596 34.912V34.384C84.2596 34.064 84.169 33.824 83.9876 33.664C83.8063 33.4987 83.5423 33.416 83.1956 33.416C82.9983 33.416 82.7983 33.4453 82.5956 33.504C82.3983 33.5573 82.1796 33.6453 81.9396 33.768L81.7156 33.312C82.0036 33.1733 82.2703 33.072 82.5156 33.008C82.761 32.944 83.0063 32.912 83.2516 32.912C83.7583 32.912 84.1476 33.032 84.4196 33.272C84.697 33.512 84.8356 33.856 84.8356 34.304V37H84.2596V36.608C84.0783 36.7627 83.8783 36.88 83.6596 36.96C83.4463 37.0347 83.2143 37.072 82.9636 37.072ZM82.0516 35.848C82.0516 36.072 82.145 36.256 82.3316 36.4C82.5236 36.5387 82.769 36.608 83.0676 36.608C83.3076 36.608 83.5263 36.5707 83.7236 36.496C83.921 36.4213 84.0996 36.304 84.2596 36.144V35.392C84.0943 35.28 83.9183 35.2 83.7316 35.152C83.545 35.0987 83.3343 35.072 83.0996 35.072C82.7796 35.072 82.5236 35.144 82.3316 35.288C82.145 35.4267 82.0516 35.6133 82.0516 35.848ZM86.9658 38.632V32.992H87.5498V33.424C87.8965 33.0933 88.3285 32.928 88.8458 32.928C89.2245 32.928 89.5658 33.0213 89.8698 33.208C90.1738 33.3893 90.4138 33.6347 90.5898 33.944C90.7711 34.2533 90.8618 34.6027 90.8618 34.992C90.8618 35.3813 90.7711 35.7333 90.5898 36.048C90.4138 36.3573 90.1738 36.6053 89.8698 36.792C89.5658 36.9733 89.2218 37.064 88.8378 37.064C88.6031 37.064 88.3765 37.024 88.1578 36.944C87.9391 36.864 87.7391 36.7493 87.5578 36.6V38.632H86.9658ZM88.7898 36.544C89.0725 36.544 89.3258 36.4773 89.5498 36.344C89.7738 36.2053 89.9498 36.0213 90.0778 35.792C90.2111 35.5573 90.2778 35.2933 90.2778 35C90.2778 34.7067 90.2111 34.4427 90.0778 34.208C89.9498 33.9733 89.7738 33.7893 89.5498 33.656C89.3258 33.5173 89.0725 33.448 88.7898 33.448C88.5391 33.448 88.3045 33.4987 88.0858 33.6C87.8725 33.696 87.6965 33.832 87.5578 34.008V35.992C87.6965 36.1627 87.8751 36.2987 88.0938 36.4C88.3125 36.496 88.5445 36.544 88.7898 36.544ZM94.7057 37.072C94.3217 37.072 93.9724 36.9813 93.6577 36.8C93.3484 36.6133 93.1004 36.3627 92.9137 36.048C92.7324 35.7333 92.6417 35.3813 92.6417 34.992C92.6417 34.608 92.7297 34.2613 92.9057 33.952C93.0817 33.6373 93.3191 33.3893 93.6177 33.208C93.9164 33.0213 94.2497 32.928 94.6177 32.928C94.9751 32.928 95.2951 33.0213 95.5777 33.208C95.8657 33.3893 96.0924 33.6373 96.2577 33.952C96.4284 34.2613 96.5137 34.608 96.5137 34.992V35.176H93.2257C93.2577 35.4373 93.3404 35.672 93.4737 35.88C93.6124 36.088 93.7911 36.2533 94.0097 36.376C94.2284 36.4933 94.4684 36.552 94.7297 36.552C94.9377 36.552 95.1404 36.52 95.3377 36.456C95.5351 36.392 95.7004 36.3013 95.8337 36.184L96.2017 36.576C95.9777 36.7413 95.7431 36.8667 95.4977 36.952C95.2577 37.032 94.9937 37.072 94.7057 37.072ZM93.2417 34.704H95.9217C95.8897 34.464 95.8097 34.2507 95.6817 34.064C95.5591 33.872 95.4044 33.7227 95.2177 33.616C95.0311 33.504 94.8257 33.448 94.6017 33.448C94.3724 33.448 94.1617 33.5013 93.9697 33.608C93.7777 33.7147 93.6177 33.864 93.4897 34.056C93.3617 34.2427 93.2791 34.4587 93.2417 34.704ZM98.4825 37V32.992H99.0745V33.56C99.1972 33.352 99.3519 33.192 99.5385 33.08C99.7305 32.9627 99.9492 32.904 100.195 32.904C100.333 32.904 100.459 32.9227 100.571 32.96V33.504C100.501 33.4773 100.432 33.4587 100.363 33.448C100.293 33.4373 100.224 33.432 100.155 33.432C99.9092 33.432 99.6932 33.504 99.5065 33.648C99.3252 33.7867 99.1812 33.9893 99.0745 34.256V37H98.4825ZM102.389 37V31.4L102.981 31.264V37H102.389ZM107.012 37.072C106.628 37.072 106.279 36.9813 105.964 36.8C105.655 36.6133 105.407 36.3627 105.22 36.048C105.039 35.7333 104.948 35.3813 104.948 34.992C104.948 34.608 105.036 34.2613 105.212 33.952C105.388 33.6373 105.625 33.3893 105.924 33.208C106.223 33.0213 106.556 32.928 106.924 32.928C107.281 32.928 107.601 33.0213 107.884 33.208C108.172 33.3893 108.399 33.6373 108.564 33.952C108.735 34.2613 108.82 34.608 108.82 34.992V35.176H105.532C105.564 35.4373 105.647 35.672 105.78 35.88C105.919 36.088 106.097 36.2533 106.316 36.376C106.535 36.4933 106.775 36.552 107.036 36.552C107.244 36.552 107.447 36.52 107.644 36.456C107.841 36.392 108.007 36.3013 108.14 36.184L108.508 36.576C108.284 36.7413 108.049 36.8667 107.804 36.952C107.564 37.032 107.3 37.072 107.012 37.072ZM105.548 34.704H108.228C108.196 34.464 108.116 34.2507 107.988 34.064C107.865 33.872 107.711 33.7227 107.524 33.616C107.337 33.504 107.132 33.448 106.908 33.448C106.679 33.448 106.468 33.5013 106.276 33.608C106.084 33.7147 105.924 33.864 105.796 34.056C105.668 34.2427 105.585 34.4587 105.548 34.704ZM112.108 37.08C111.777 37.08 111.465 37.0267 111.172 36.92C110.884 36.808 110.633 36.6533 110.42 36.456L110.78 36.072C110.967 36.2427 111.172 36.376 111.396 36.472C111.62 36.5627 111.849 36.608 112.084 36.608C112.404 36.608 112.665 36.5413 112.868 36.408C113.071 36.2747 113.172 36.1013 113.172 35.888C113.172 35.712 113.111 35.576 112.988 35.48C112.871 35.3787 112.684 35.3093 112.428 35.272L111.732 35.176C111.332 35.1173 111.033 34.9973 110.836 34.816C110.644 34.6347 110.548 34.3893 110.548 34.08C110.548 33.856 110.612 33.656 110.74 33.48C110.868 33.304 111.044 33.1653 111.268 33.064C111.497 32.9627 111.759 32.912 112.052 32.912C112.345 32.912 112.62 32.9547 112.876 33.04C113.132 33.1253 113.383 33.2587 113.628 33.44L113.316 33.84C113.092 33.6853 112.873 33.5733 112.66 33.504C112.452 33.4293 112.239 33.392 112.02 33.392C111.743 33.392 111.519 33.4533 111.348 33.576C111.177 33.6987 111.092 33.8587 111.092 34.056C111.092 34.2373 111.151 34.376 111.268 34.472C111.385 34.5627 111.575 34.6267 111.836 34.664L112.532 34.76C112.932 34.8133 113.231 34.9307 113.428 35.112C113.631 35.2933 113.732 35.5413 113.732 35.856C113.732 36.0853 113.66 36.2933 113.516 36.48C113.372 36.6667 113.177 36.8133 112.932 36.92C112.692 37.0267 112.417 37.08 112.108 37.08ZM116.819 37.08C116.489 37.08 116.177 37.0267 115.883 36.92C115.595 36.808 115.345 36.6533 115.131 36.456L115.491 36.072C115.678 36.2427 115.883 36.376 116.107 36.472C116.331 36.5627 116.561 36.608 116.795 36.608C117.115 36.608 117.377 36.5413 117.579 36.408C117.782 36.2747 117.883 36.1013 117.883 35.888C117.883 35.712 117.822 35.576 117.699 35.48C117.582 35.3787 117.395 35.3093 117.139 35.272L116.443 35.176C116.043 35.1173 115.745 34.9973 115.547 34.816C115.355 34.6347 115.259 34.3893 115.259 34.08C115.259 33.856 115.323 33.656 115.451 33.48C115.579 33.304 115.755 33.1653 115.979 33.064C116.209 32.9627 116.47 32.912 116.763 32.912C117.057 32.912 117.331 32.9547 117.587 33.04C117.843 33.1253 118.094 33.2587 118.339 33.44L118.027 33.84C117.803 33.6853 117.585 33.5733 117.371 33.504C117.163 33.4293 116.95 33.392 116.731 33.392C116.454 33.392 116.23 33.4533 116.059 33.576C115.889 33.6987 115.803 33.8587 115.803 34.056C115.803 34.2373 115.862 34.376 115.979 34.472C116.097 34.5627 116.286 34.6267 116.547 34.664L117.243 34.76C117.643 34.8133 117.942 34.9307 118.139 35.112C118.342 35.2933 118.443 35.5413 118.443 35.856C118.443 36.0853 118.371 36.2933 118.227 36.48C118.083 36.6667 117.889 36.8133 117.643 36.92C117.403 37.0267 117.129 37.08 116.819 37.08ZM124.663 37.088C124.295 37.088 123.972 37.0213 123.695 36.888C123.418 36.7547 123.202 36.568 123.047 36.328C122.892 36.088 122.815 35.8107 122.815 35.496C122.815 35.272 122.852 35.072 122.927 34.896C123.007 34.7147 123.138 34.544 123.319 34.384C123.5 34.224 123.746 34.0587 124.055 33.888C123.868 33.6533 123.735 33.44 123.655 33.248C123.58 33.0507 123.543 32.8453 123.543 32.632C123.543 32.3813 123.602 32.1573 123.719 31.96C123.836 31.7573 123.996 31.6 124.199 31.488C124.407 31.3707 124.639 31.312 124.895 31.312C125.14 31.312 125.356 31.3627 125.543 31.464C125.735 31.56 125.884 31.696 125.991 31.872C126.103 32.0427 126.159 32.2427 126.159 32.472C126.159 32.7333 126.087 32.968 125.943 33.176C125.799 33.384 125.572 33.5787 125.263 33.76L124.863 34C125.082 34.2453 125.322 34.496 125.583 34.752C125.844 35.008 126.111 35.2613 126.383 35.512C126.516 35.2987 126.626 35.064 126.711 34.808C126.802 34.552 126.874 34.2853 126.927 34.008L127.471 34.096C127.402 34.4373 127.311 34.7573 127.199 35.056C127.087 35.3493 126.948 35.6213 126.783 35.872C126.954 36.0213 127.124 36.1653 127.295 36.304C127.466 36.4373 127.626 36.5627 127.775 36.68L127.415 37.104C127.266 36.9867 127.108 36.864 126.943 36.736C126.783 36.6027 126.62 36.4667 126.455 36.328C126.226 36.5733 125.956 36.7627 125.647 36.896C125.343 37.024 125.015 37.088 124.663 37.088ZM124.551 33.632L125.007 33.368C125.204 33.2507 125.351 33.12 125.447 32.976C125.548 32.832 125.599 32.6693 125.599 32.488C125.599 32.2907 125.53 32.1253 125.391 31.992C125.252 31.8587 125.082 31.792 124.879 31.792C124.655 31.792 124.468 31.8693 124.319 32.024C124.175 32.1787 124.103 32.3787 124.103 32.624C124.103 32.7893 124.135 32.9493 124.199 33.104C124.268 33.2533 124.386 33.4293 124.551 33.632ZM124.695 36.584C124.962 36.584 125.21 36.5333 125.439 36.432C125.674 36.3253 125.882 36.1733 126.063 35.976C125.754 35.6933 125.452 35.408 125.159 35.12C124.866 34.8267 124.602 34.544 124.367 34.272C124.116 34.4053 123.916 34.5333 123.767 34.656C123.623 34.7787 123.522 34.9067 123.463 35.04C123.404 35.168 123.375 35.3147 123.375 35.48C123.375 35.8107 123.495 36.0773 123.735 36.28C123.98 36.4827 124.3 36.584 124.695 36.584ZM132.451 37V31.4H136.459V31.944H133.067V33.904H135.283V34.44H133.067V36.456H136.491V37H132.451ZM139.673 37.072C139.38 37.072 139.121 37.0213 138.897 36.92C138.679 36.8187 138.505 36.6773 138.377 36.496C138.255 36.3147 138.193 36.104 138.193 35.864C138.193 35.4853 138.337 35.1867 138.625 34.968C138.913 34.7493 139.303 34.64 139.793 34.64C140.225 34.64 140.617 34.7307 140.969 34.912V34.384C140.969 34.064 140.879 33.824 140.697 33.664C140.516 33.4987 140.252 33.416 139.905 33.416C139.708 33.416 139.508 33.4453 139.305 33.504C139.108 33.5573 138.889 33.6453 138.649 33.768L138.425 33.312C138.713 33.1733 138.98 33.072 139.225 33.008C139.471 32.944 139.716 32.912 139.961 32.912C140.468 32.912 140.857 33.032 141.129 33.272C141.407 33.512 141.545 33.856 141.545 34.304V37H140.969V36.608C140.788 36.7627 140.588 36.88 140.369 36.96C140.156 37.0347 139.924 37.072 139.673 37.072ZM138.761 35.848C138.761 36.072 138.855 36.256 139.041 36.4C139.233 36.5387 139.479 36.608 139.777 36.608C140.017 36.608 140.236 36.5707 140.433 36.496C140.631 36.4213 140.809 36.304 140.969 36.144V35.392C140.804 35.28 140.628 35.2 140.441 35.152C140.255 35.0987 140.044 35.072 139.809 35.072C139.489 35.072 139.233 35.144 139.041 35.288C138.855 35.4267 138.761 35.6133 138.761 35.848ZM144.956 37.08C144.625 37.08 144.313 37.0267 144.02 36.92C143.732 36.808 143.481 36.6533 143.268 36.456L143.628 36.072C143.814 36.2427 144.02 36.376 144.244 36.472C144.468 36.5627 144.697 36.608 144.932 36.608C145.252 36.608 145.513 36.5413 145.716 36.408C145.918 36.2747 146.02 36.1013 146.02 35.888C146.02 35.712 145.958 35.576 145.836 35.48C145.718 35.3787 145.532 35.3093 145.276 35.272L144.58 35.176C144.18 35.1173 143.881 34.9973 143.684 34.816C143.492 34.6347 143.396 34.3893 143.396 34.08C143.396 33.856 143.46 33.656 143.588 33.48C143.716 33.304 143.892 33.1653 144.116 33.064C144.345 32.9627 144.606 32.912 144.9 32.912C145.193 32.912 145.468 32.9547 145.724 33.04C145.98 33.1253 146.23 33.2587 146.476 33.44L146.164 33.84C145.94 33.6853 145.721 33.5733 145.508 33.504C145.3 33.4293 145.086 33.392 144.868 33.392C144.59 33.392 144.366 33.4533 144.196 33.576C144.025 33.6987 143.94 33.8587 143.94 34.056C143.94 34.2373 143.998 34.376 144.116 34.472C144.233 34.5627 144.422 34.6267 144.684 34.664L145.38 34.76C145.78 34.8133 146.078 34.9307 146.276 35.112C146.478 35.2933 146.58 35.5413 146.58 35.856C146.58 36.0853 146.508 36.2933 146.364 36.48C146.22 36.6667 146.025 36.8133 145.78 36.92C145.54 37.0267 145.265 37.08 144.956 37.08ZM148.477 38.712C148.402 38.712 148.33 38.7067 148.261 38.696C148.197 38.6907 148.144 38.6827 148.101 38.672V38.136C148.192 38.1573 148.304 38.168 148.437 38.168C148.789 38.168 149.056 37.96 149.237 37.544L149.477 36.992L147.845 32.992H148.501L149.797 36.28L151.197 32.992H151.837L149.837 37.624C149.725 37.88 149.605 38.088 149.477 38.248C149.349 38.408 149.202 38.5253 149.037 38.6C148.877 38.6747 148.69 38.712 148.477 38.712Z" fill="#DEDEDE"/>
</g>
<defs>
<clipPath id="clip0_1_144">
<rect width="212" height="48" fill="white"/>
</clipPath>
</defs>
</svg>
