<svg width="20" height="21" viewBox="0 0 20 21" fill="none" xmlns="http://www.w3.org/2000/svg">
<g id="vuesax/bold/notification-bing">
<g id="notification-bing">
<path id="Vector" d="M16.825 12.2167L15.8834 10.65C15.675 10.3083 15.4917 9.65 15.4917 9.25V7.69166C15.4917 4.66666 13.0334 2.20833 10.0167 2.20833C6.99169 2.21666 4.53336 4.66666 4.53336 7.69166V9.24166C4.53336 9.64166 4.35003 10.3 4.15003 10.6417L3.20836 12.2083C2.85003 12.8167 2.76669 13.5083 2.99169 14.1083C3.21669 14.7167 3.72503 15.2 4.39169 15.4167C5.29169 15.7167 6.20003 15.9333 7.12503 16.0917C7.21669 16.1083 7.30836 16.1167 7.40003 16.1333C7.51669 16.15 7.64169 16.1667 7.76669 16.1833C7.98336 16.2167 8.20003 16.2417 8.42503 16.2583C8.95003 16.3083 9.48336 16.3333 10.0167 16.3333C10.5417 16.3333 11.0667 16.3083 11.5834 16.2583C11.775 16.2417 11.9667 16.225 12.15 16.2C12.3 16.1833 12.45 16.1667 12.6 16.1417C12.6917 16.1333 12.7834 16.1167 12.875 16.1C13.8084 15.95 14.7334 15.7167 15.6334 15.4167C16.275 15.2 16.7667 14.7167 17 14.1C17.2334 13.475 17.1667 12.7917 16.825 12.2167ZM10.625 8.83333C10.625 9.18333 10.3417 9.46666 9.99169 9.46666C9.64169 9.46666 9.35836 9.18333 9.35836 8.83333V6.25C9.35836 5.9 9.64169 5.61666 9.99169 5.61666C10.3417 5.61666 10.625 5.9 10.625 6.25V8.83333Z" fill="#DEDEDE"/>
<path id="Vector_2" d="M12.3584 17.175C12.0084 18.1417 11.0834 18.8333 10 18.8333C9.34169 18.8333 8.69169 18.5667 8.23336 18.0917C7.96669 17.8417 7.76669 17.5083 7.65002 17.1667C7.75836 17.1833 7.86669 17.1917 7.98336 17.2083C8.17502 17.2333 8.37502 17.2583 8.57502 17.275C9.05002 17.3167 9.53336 17.3417 10.0167 17.3417C10.4917 17.3417 10.9667 17.3167 11.4334 17.275C11.6084 17.2583 11.7834 17.25 11.95 17.225C12.0834 17.2083 12.2167 17.1917 12.3584 17.175Z" fill="#DEDEDE"/>
</g>
</g>
</svg>
