<svg width="20" height="20" viewBox="0 0 20 20" fill="none" xmlns="http://www.w3.org/2000/svg">
<path d="M17.3833 6.97501L11.6083 2.35834C10.7167 1.64167 9.275 1.64167 8.39166 2.35001L2.61666 6.97501C1.96666 7.49167 1.55 8.58334 1.69166 9.40001L2.8 16.0333C3 17.2167 4.13333 18.175 5.33333 18.175H14.6667C15.8583 18.175 17 17.2083 17.2 16.0333L18.3083 9.40001C18.4417 8.58334 18.025 7.49167 17.3833 6.97501ZM10 12.9167C8.85 12.9167 7.91666 11.9833 7.91666 10.8333C7.91666 9.68334 8.85 8.75001 10 8.75001C11.15 8.75001 12.0833 9.68334 12.0833 10.8333C12.0833 11.9833 11.15 12.9167 10 12.9167Z" fill="white"/>
</svg>
