<svg width="20" height="20" viewBox="0 0 20 20" fill="none" xmlns="http://www.w3.org/2000/svg">
<g id="vuesax/bold/note-2">
<path id="Vector" d="M10.5647 16.6309C10.7937 16.6841 10.8146 16.984 10.5916 17.0583L9.27498 17.4917C5.96665 18.5583 4.22498 17.6667 3.14998 14.3583L2.08331 11.0667C1.01665 7.75834 1.89998 6.00834 5.20831 4.94167L5.47564 4.85314C5.87851 4.71972 6.2741 5.12509 6.16519 5.53525C6.13451 5.6508 6.10451 5.76961 6.07498 5.89167L5.25831 9.38334C4.34165 13.3083 5.68331 15.475 9.60831 16.4083L10.5647 16.6309Z" fill="#DEDEDE"/>
<path id="Vector_2" d="M14.3083 2.675L12.9167 2.35C10.1333 1.69167 8.47499 2.23333 7.49999 4.25C7.24999 4.75833 7.04999 5.375 6.88332 6.08334L6.06665 9.575C5.24999 13.0583 6.32499 14.775 9.79999 15.6L11.2 15.9333C11.6833 16.05 12.1333 16.125 12.55 16.1583C15.15 16.4083 16.5333 15.1917 17.2333 12.1833L18.05 8.7C18.8667 5.21667 17.8 3.49167 14.3083 2.675ZM12.7417 11.1083C12.6667 11.3917 12.4167 11.575 12.1333 11.575C12.0833 11.575 12.0333 11.5667 11.975 11.5583L9.54999 10.9417C9.21665 10.8583 9.01665 10.5167 9.09999 10.1833C9.18332 9.85 9.52499 9.65 9.85832 9.73334L12.2833 10.35C12.625 10.4333 12.825 10.775 12.7417 11.1083ZM15.1833 8.29167C15.1083 8.575 14.8583 8.75834 14.575 8.75834C14.525 8.75834 14.475 8.75 14.4167 8.74167L10.375 7.71667C10.0417 7.63334 9.84165 7.29167 9.92499 6.95834C10.0083 6.625 10.35 6.425 10.6833 6.50833L14.725 7.53333C15.0667 7.60834 15.2667 7.95 15.1833 8.29167Z" fill="#DEDEDE"/>
</g>
</svg>
