<svg width="20" height="20" viewBox="0 0 20 20" fill="none" xmlns="http://www.w3.org/2000/svg">
<g id="vuesax/bold/trash">
<g id="trash">
<path id="Vector" d="M17.5583 4.35834C16.2167 4.22501 14.875 4.12501 13.525 4.05001V4.04167L13.3417 2.95834C13.2167 2.19167 13.0333 1.04167 11.0833 1.04167H8.89999C6.95832 1.04167 6.77499 2.14167 6.64165 2.95001L6.46666 4.01667C5.69166 4.06667 4.91666 4.11667 4.14166 4.19167L2.44166 4.35834C2.09166 4.39167 1.84166 4.70001 1.87499 5.04167C1.90832 5.38334 2.20832 5.63334 2.55832 5.60001L4.25832 5.43334C8.62499 5.00001 13.025 5.16667 17.4417 5.60834C17.4667 5.60834 17.4833 5.60834 17.5083 5.60834C17.825 5.60834 18.1 5.36667 18.1333 5.04167C18.1583 4.70001 17.9083 4.39167 17.5583 4.35834Z" fill="#DEDEDE"/>
<path id="Vector_2" d="M16.025 6.78333C15.825 6.575 15.55 6.45833 15.2667 6.45833H4.73335C4.45002 6.45833 4.16668 6.575 3.97502 6.78333C3.78335 6.99166 3.67501 7.27499 3.69168 7.56666L4.20835 16.1167C4.30002 17.3833 4.41668 18.9667 7.32502 18.9667H12.675C15.5833 18.9667 15.7 17.3917 15.7917 16.1167L16.3083 7.575C16.325 7.275 16.2167 6.99166 16.025 6.78333ZM11.3833 14.7917H8.60835C8.26668 14.7917 7.98335 14.5083 7.98335 14.1667C7.98335 13.825 8.26668 13.5417 8.60835 13.5417H11.3833C11.725 13.5417 12.0083 13.825 12.0083 14.1667C12.0083 14.5083 11.725 14.7917 11.3833 14.7917ZM12.0833 11.4583H7.91668C7.57502 11.4583 7.29168 11.175 7.29168 10.8333C7.29168 10.4917 7.57502 10.2083 7.91668 10.2083H12.0833C12.425 10.2083 12.7083 10.4917 12.7083 10.8333C12.7083 11.175 12.425 11.4583 12.0833 11.4583Z" fill="#DEDEDE"/>
</g>
</g>
</svg>
